<?xml version="1.0" encoding="UTF-8" standalone="no"?>
<svg width="800" height="400" xmlns="http://www.w3.org/2000/svg">
  <!-- Fond -->
  <rect width="800" height="400" fill="#f5f5f5" rx="10" ry="10"/>
  
  <!-- Titre -->
  <text x="400" y="30" font-family="Arial" font-size="20" font-weight="bold" text-anchor="middle">Architecture du MCP</text>
  
  <!-- Boîtes principales -->
  <!-- Documents -->
  <rect x="50" y="80" width="160" height="80" fill="#e1f5fe" stroke="#0288d1" stroke-width="2" rx="5" ry="5"/>
  <text x="130" y="125" font-family="Arial" font-size="16" text-anchor="middle">Documents</text>
  
  <!-- RAG Workflow -->
  <rect x="320" y="150" width="160" height="100" fill="#e8f5e9" stroke="#388e3c" stroke-width="2" rx="5" ry="5"/>
  <text x="400" y="180" font-family="Arial" font-size="16" font-weight="bold" text-anchor="middle">RAG Workflow</text>
  <text x="400" y="205" font-family="Arial" font-size="12" text-anchor="middle">Récupération</text>
  <text x="400" y="225" font-family="Arial" font-size="12" text-anchor="middle">Augmentation</text>
  <text x="400" y="245" font-family="Arial" font-size="12" text-anchor="middle">Génération</text>
  
  <!-- OpenAI API -->
  <rect x="590" y="80" width="160" height="80" fill="#fff3e0" stroke="#f57c00" stroke-width="2" rx="5" ry="5"/>
  <text x="670" y="125" font-family="Arial" font-size="16" text-anchor="middle">API OpenAI</text>
  
  <!-- MongoDB -->
  <rect x="50" y="240" width="160" height="80" fill="#e8eaf6" stroke="#3f51b5" stroke-width="2" rx="5" ry="5"/>
  <text x="130" y="285" font-family="Arial" font-size="16" text-anchor="middle">MongoDB</text>
  
  <!-- Redis -->
  <rect x="590" y="240" width="160" height="80" fill="#ffebee" stroke="#c62828" stroke-width="2" rx="5" ry="5"/>
  <text x="670" y="285" font-family="Arial" font-size="16" text-anchor="middle">Redis Cache</text>
  
  <!-- Flèches -->
  <!-- Documents vers RAG -->
  <line x1="210" y1="120" x2="320" y2="180" stroke="#666" stroke-width="2" marker-end="url(#arrow)"/>
  <text x="250" y="130" font-family="Arial" font-size="12" text-anchor="middle">Ingestion</text>
  
  <!-- RAG vers MongoDB -->
  <line x1="320" y1="220" x2="210" y2="260" stroke="#666" stroke-width="2" marker-end="url(#arrow)"/>
  <text x="250" y="250" font-family="Arial" font-size="12" text-anchor="middle">Stockage</text>
  
  <!-- MongoDB vers RAG -->
  <line x1="210" y1="280" x2="320" y2="220" stroke="#666" stroke-width="2" marker-end="url(#arrow)"/>
  <text x="250" y="290" font-family="Arial" font-size="12" text-anchor="middle">Recherche</text>
  
  <!-- RAG vers OpenAI -->
  <line x1="480" y1="180" x2="590" y2="120" stroke="#666" stroke-width="2" marker-end="url(#arrow)"/>
  <text x="530" y="130" font-family="Arial" font-size="12" text-anchor="middle">Embeddings</text>
  <text x="530" y="150" font-family="Arial" font-size="12" text-anchor="middle">& Génération</text>
  
  <!-- RAG vers Redis -->
  <line x1="480" y1="220" x2="590" y2="260" stroke="#666" stroke-width="2" marker-end="url(#arrow)"/>
  <text x="530" y="250" font-family="Arial" font-size="12" text-anchor="middle">Cache</text>
  
  <!-- Redis vers RAG -->
  <line x1="590" y1="280" x2="480" y2="220" stroke="#666" stroke-width="2" marker-end="url(#arrow)"/>
  <text x="530" y="290" font-family="Arial" font-size="12" text-anchor="middle">Récupération</text>
  
  <!-- User Request & Response -->
  <rect x="320" y="320" width="160" height="50" fill="#fafafa" stroke="#9e9e9e" stroke-width="2" rx="5" ry="5"/>
  <text x="400" y="350" font-family="Arial" font-size="14" text-anchor="middle">Requêtes / Réponses</text>
  
  <!-- User vers RAG -->
  <line x1="400" y1="320" x2="400" y2="250" stroke="#666" stroke-width="2" marker-end="url(#arrow)"/>
  
  <!-- Marqueur de flèche -->
  <defs>
    <marker id="arrow" markerWidth="10" markerHeight="10" refX="9" refY="3" orient="auto" markerUnits="strokeWidth">
      <path d="M0,0 L0,6 L9,3 z" fill="#666"/>
    </marker>
  </defs>
</svg> 